<svg width="30" height="30" viewBox="0 0 30 30" fill="none" xmlns="http://www.w3.org/2000/svg">
<g id="Group 627631">
<path id="Rectangle 3463938" d="M1 13H5V1H25V13H29V29H1V13Z" fill="url(#paint0_linear_1151_1164)"/>
<path id="Vector" d="M28.5 12H26V2.5C25.9992 1.8372 25.7356 1.20178 25.2669 0.73311C24.7982 0.264441 24.1628 0.000793929 23.5 0H6.5C5.8372 0.000793929 5.20178 0.264441 4.73311 0.73311C4.26444 1.20178 4.00079 1.8372 4 2.5V12H1.5C1.10218 12 0.720644 12.158 0.43934 12.4393C0.158035 12.7206 0 13.1022 0 13.5V27.49C0.00130742 28.1536 0.264803 28.7897 0.733075 29.2599C1.20135 29.73 1.83645 29.996 2.5 30H27.5C28.1628 29.9992 28.7982 29.7356 29.2669 29.2669C29.7356 28.7982 29.9992 28.1628 30 27.5V13.5C30 13.1022 29.842 12.7206 29.5607 12.4393C29.2794 12.158 28.8978 12 28.5 12ZM28.5 13C28.6326 13 28.7598 13.0527 28.8536 13.1464C28.9473 13.2402 29 13.3674 29 13.5V13.724L26 15.619V13H28.5ZM6.5 1H23.5C23.8978 1 24.2794 1.15804 24.5607 1.43934C24.842 1.72064 25 2.10218 25 2.5V16.25L20.022 19.395C19.7497 19.143 19.393 19.0021 19.022 19H10.9805C10.6095 19.0021 10.2528 19.143 9.9805 19.395L5 16.25V2.5C5 2.10218 5.15804 1.72064 5.43934 1.43934C5.72064 1.15804 6.10218 1 6.5 1ZM1.5 13H4V15.619L1 13.724V13.5C1 13.3674 1.05268 13.2402 1.14645 13.1464C1.24021 13.0527 1.36739 13 1.5 13ZM1 27.49V14.9075L9.3265 20.1665L2.2765 28.9765C1.92168 28.9211 1.59825 28.741 1.36429 28.4685C1.13033 28.1961 1.00117 27.8491 1 27.49ZM3.5405 29L10.5905 20.188C10.6373 20.1294 10.6966 20.0821 10.7641 20.0496C10.8316 20.0171 10.9056 20.0001 10.9805 20H19.0195C19.0945 20 19.1685 20.0168 19.2361 20.0493C19.3037 20.0817 19.3631 20.129 19.41 20.1875L26.4595 29H3.5405ZM27.722 28.9775L20.672 20.1665L29 14.9075V27.5C28.9986 27.8583 28.8689 28.2043 28.6345 28.4753C28.4001 28.7463 28.0764 28.9245 27.722 28.9775Z" fill="white"/>
<path id="Vector_2" d="M15 8C15.4945 8 15.9778 7.85338 16.3889 7.57868C16.8 7.30397 17.1205 6.91353 17.3097 6.45671C17.4989 5.99989 17.5484 5.49723 17.452 5.01228C17.3555 4.52732 17.1174 4.08187 16.7678 3.73223C16.4181 3.3826 15.9727 3.1445 15.4877 3.04804C15.0028 2.95157 14.5001 3.00108 14.0433 3.1903C13.5865 3.37952 13.196 3.69995 12.9213 4.11108C12.6466 4.5222 12.5 5.00555 12.5 5.5C12.5008 6.1628 12.7644 6.79822 13.2331 7.26689C13.7018 7.73556 14.3372 7.99921 15 8ZM15 4C15.2967 4 15.5867 4.08797 15.8334 4.2528C16.08 4.41762 16.2723 4.65189 16.3858 4.92598C16.4993 5.20007 16.5291 5.50167 16.4712 5.79264C16.4133 6.08361 16.2704 6.35088 16.0607 6.56066C15.8509 6.77044 15.5836 6.9133 15.2926 6.97118C15.0017 7.02906 14.7001 6.99935 14.426 6.88582C14.1519 6.77229 13.9176 6.58003 13.7528 6.33336C13.588 6.08668 13.5 5.79667 13.5 5.5C13.5 5.10218 13.658 4.72065 13.9393 4.43934C14.2206 4.15804 14.6022 4 15 4ZM9.5 10H20.5C20.6326 10 20.7598 9.94732 20.8536 9.85356C20.9473 9.75979 21 9.63261 21 9.5C21 9.36739 20.9473 9.24022 20.8536 9.14645C20.7598 9.05268 20.6326 9 20.5 9H9.5C9.36739 9 9.24021 9.05268 9.14645 9.14645C9.05268 9.24022 9 9.36739 9 9.5C9 9.63261 9.05268 9.75979 9.14645 9.85356C9.24021 9.94732 9.36739 10 9.5 10ZM7.5 12H22.5C22.6326 12 22.7598 11.9473 22.8536 11.8536C22.9473 11.7598 23 11.6326 23 11.5C23 11.3674 22.9473 11.2402 22.8536 11.1464C22.7598 11.0527 22.6326 11 22.5 11H7.5C7.36739 11 7.24021 11.0527 7.14645 11.1464C7.05268 11.2402 7 11.3674 7 11.5C7 11.6326 7.05268 11.7598 7.14645 11.8536C7.24021 11.9473 7.36739 12 7.5 12Z" fill="white"/>
</g>
<defs>
<linearGradient id="paint0_linear_1151_1164" x1="15" y1="1" x2="15" y2="29" gradientUnits="userSpaceOnUse">
<stop stop-color="#070519"/>
<stop offset="1" stop-color="#3C3A4A"/>
</linearGradient>
</defs>
</svg>
