<svg width="40" height="40" viewBox="0 0 40 40" fill="none" xmlns="http://www.w3.org/2000/svg">
<g id="team 2">
<g id="Group 627628">
<path id="Rectangle 3463935" d="M2 10H38L36.5 28.5H3.5L2 10Z" fill="url(#paint0_linear_1151_795)"/>
<g id="Vector">
<path d="M23.6133 14.9786C23.6126 15.0875 23.6086 15.1964 23.6011 15.3051C23.5974 15.3588 23.5918 15.4123 23.5861 15.4659C23.5668 15.6475 23.6095 15.3162 23.5813 15.4958C23.5461 15.721 23.4887 15.9423 23.4181 16.1588C23.402 16.2082 23.384 16.257 23.3661 16.3058C23.3555 16.3347 23.2887 16.4982 23.3579 16.3345C23.3178 16.4294 23.2725 16.522 23.2257 16.6137C23.1248 16.8112 23.0052 16.9987 22.8753 17.1783C22.7733 17.3192 22.9663 17.0656 22.8578 17.2015C22.8261 17.2413 22.7929 17.2799 22.7597 17.3186C22.6934 17.3959 22.6231 17.4696 22.5515 17.542C22.48 17.6144 22.4046 17.683 22.3281 17.7502C22.2899 17.7838 22.2504 17.816 22.211 17.8483C22.1521 17.8951 22.158 17.8908 22.2288 17.8354C22.2016 17.8558 22.1742 17.8759 22.1465 17.8957C21.9807 18.0158 21.8044 18.1209 21.6233 18.2161C21.5321 18.2641 21.4384 18.3071 21.3441 18.3483C21.5067 18.2772 21.3445 18.3455 21.3154 18.3566C21.2506 18.3813 21.1847 18.4031 21.1189 18.4247C20.9187 18.4899 20.7128 18.5366 20.5054 18.5718C20.3262 18.6021 20.6568 18.5549 20.4755 18.5765C20.422 18.5829 20.3684 18.5872 20.3147 18.5915C20.1879 18.6018 20.0606 18.6042 19.9334 18.6034C19.8248 18.6027 19.7163 18.5959 19.608 18.5872C19.5545 18.5825 19.501 18.5768 19.4477 18.5701C19.6297 18.5918 19.4508 18.5683 19.4186 18.5628C19.1943 18.5248 18.9741 18.4649 18.7588 18.3917C18.7097 18.375 18.6611 18.3566 18.6127 18.3381C18.4477 18.2753 18.7464 18.3982 18.5851 18.3276C18.4908 18.2864 18.3988 18.2401 18.3077 18.1922C18.1115 18.089 17.9255 17.9673 17.7476 17.8353C17.8879 17.9395 17.7499 17.8356 17.7259 17.816C17.6867 17.7835 17.6481 17.7504 17.61 17.7165C17.5335 17.6493 17.4606 17.5782 17.3891 17.5058C17.3175 17.4333 17.2498 17.3572 17.1835 17.2799C17.1504 17.2413 17.1186 17.2015 17.0868 17.1617C17.2004 17.304 17.0616 17.1234 17.0417 17.0952C16.9236 16.9279 16.8204 16.7502 16.7273 16.5679C16.7039 16.5221 16.6822 16.4754 16.6604 16.4288C16.6472 16.4004 16.5806 16.2383 16.6477 16.4023C16.6018 16.2901 16.5628 16.1752 16.5266 16.0595C16.4637 15.8582 16.4195 15.6514 16.3868 15.4432C16.4152 15.6245 16.3881 15.4448 16.3847 15.4125C16.3793 15.3588 16.3749 15.305 16.3716 15.2511C16.3629 15.124 16.3621 14.9965 16.3645 14.8691C16.3665 14.7608 16.3745 14.6526 16.3847 14.5448C16.3877 14.5127 16.4131 14.332 16.3868 14.5141C16.3944 14.4615 16.4039 14.4092 16.4134 14.3569C16.4542 14.1334 16.5168 13.9143 16.5924 13.7002C16.6097 13.6514 16.6287 13.6031 16.6477 13.5549C16.5828 13.7194 16.6475 13.5572 16.6604 13.5285C16.7027 13.4348 16.7501 13.3434 16.7991 13.253C16.8478 13.1629 16.9014 13.0756 16.9564 12.9892C16.9838 12.9461 17.0128 12.9041 17.0418 12.862C17.0612 12.8339 17.199 12.6517 17.0868 12.7956C17.212 12.6349 17.3513 12.4856 17.4977 12.3442C17.5709 12.2734 17.6479 12.2067 17.7259 12.1413C17.7495 12.1216 17.887 12.016 17.7476 12.1219C17.8018 12.0808 17.8576 12.0418 17.9136 12.0032C18.0825 11.8869 18.2615 11.7859 18.445 11.6949C18.4913 11.6723 18.538 11.6505 18.5851 11.6296C18.7456 11.5571 18.4485 11.684 18.6127 11.6192C18.7256 11.5745 18.8412 11.5369 18.9574 11.5021C19.0581 11.472 19.1603 11.4474 19.2628 11.4248C19.3145 11.4134 19.3666 11.4039 19.4187 11.3944C19.4504 11.3886 19.6299 11.3632 19.4478 11.3871C19.6812 11.3564 19.9172 11.3492 20.1522 11.3566C20.2603 11.3599 20.3681 11.3693 20.4755 11.3808C20.6571 11.4001 20.3258 11.3573 20.5054 11.3855C20.5578 11.3937 20.6099 11.4038 20.6619 11.414C20.8846 11.4574 21.1026 11.5226 21.3154 11.6007C21.3443 11.6113 21.5079 11.6782 21.3441 11.6089C21.3916 11.629 21.4384 11.6508 21.4851 11.6726C21.5782 11.716 21.6689 11.7644 21.7587 11.8144C21.8481 11.8642 21.9348 11.9187 22.0204 11.9747C22.0631 12.0027 22.1049 12.0322 22.1465 12.0616C22.1715 12.0793 22.3094 12.1849 22.1712 12.0772C22.3319 12.2025 22.4813 12.3417 22.6227 12.4881C22.6934 12.5614 22.7602 12.6383 22.8256 12.7164C22.8453 12.7399 22.9509 12.8774 22.8449 12.7381C22.8758 12.7787 22.9052 12.8204 22.9347 12.862C23.0528 13.0294 23.1559 13.207 23.2491 13.3893C23.2725 13.4352 23.2943 13.4818 23.316 13.5285C23.3292 13.5568 23.3958 13.719 23.3287 13.555C23.368 13.6511 23.402 13.7493 23.4342 13.8481C23.4995 14.0483 23.5461 14.2541 23.5813 14.4615C23.6117 14.6408 23.5645 14.3101 23.5861 14.4915C23.5924 14.5449 23.5968 14.5986 23.6011 14.6522C23.61 14.7608 23.6126 14.8697 23.6133 14.9786C23.6157 15.3512 23.9225 15.6622 24.2969 15.6622C24.6678 15.6622 24.9829 15.3513 24.9805 14.9786C24.9686 13.0612 23.8406 11.2436 22.0815 10.449C20.2424 9.61837 18.1036 9.96032 16.6054 11.308C15.1644 12.6043 14.6362 14.7447 15.2567 16.5715C15.5574 17.4567 16.1068 18.2626 16.8385 18.8468C17.6314 19.4798 18.5471 19.8423 19.5544 19.9493C20.9438 20.097 22.3433 19.5738 23.371 18.6492C24.3994 17.7242 24.9719 16.3529 24.9805 14.9786C24.9829 14.6059 24.6678 14.295 24.2969 14.295C23.9225 14.295 23.6157 14.606 23.6133 14.9786Z" fill="white"/>
<path d="M24.9238 19.7991C25.0194 19.8601 25.1135 19.9237 25.2057 19.9898C25.2239 20.0028 25.3739 20.118 25.248 20.0196C25.2926 20.0545 25.336 20.0907 25.3794 20.127C25.5676 20.2841 25.7421 20.4569 25.9068 20.6382C25.9829 20.722 26.0549 20.8094 26.1255 20.8978C26.0259 20.773 26.1419 20.922 26.1552 20.9402C26.1884 20.9861 26.2209 21.0326 26.2526 21.0796C26.3918 21.2834 26.5132 21.4987 26.6226 21.7197C26.6477 21.7711 26.672 21.823 26.6954 21.8752C26.7747 22.0495 26.6441 21.7453 26.7159 21.9233C26.759 22.0303 26.7969 22.1393 26.833 22.2489C26.9121 22.4894 26.9698 22.7366 27.0135 22.9858C27.0176 23.0091 27.0452 23.2046 27.0236 23.0385C27.0313 23.0977 27.037 23.157 27.0426 23.2164C27.0542 23.3364 27.0596 23.4569 27.063 23.5773C27.0647 23.6395 27.0643 23.7018 27.0643 23.764V27.2492C27.0643 27.2934 27.0629 27.3153 27.0608 27.3593C27.0519 27.5411 27.0893 27.2137 27.0575 27.3907C27.0481 27.4428 27.0338 27.4938 27.0196 27.5446C27.0111 27.5747 26.9478 27.7392 27.0164 27.577C26.9762 27.6721 26.9228 27.761 26.8659 27.8467C26.7703 27.9907 26.959 27.7388 26.8467 27.8698C26.8022 27.9216 26.7524 27.9685 26.7021 28.0144C26.5746 28.1307 26.8199 27.9336 26.679 28.0336C26.6371 28.0634 26.5924 28.0892 26.548 28.115C26.5032 28.1409 26.4562 28.1625 26.4092 28.1841C26.5673 28.1114 26.4085 28.1773 26.3769 28.1873C26.3264 28.2032 26.2747 28.2142 26.223 28.2252C26.0471 28.2627 26.3731 28.2138 26.1916 28.2285C26.154 28.2315 26.1156 28.232 26.0779 28.232H13.8951C13.8468 28.232 13.8335 28.2308 13.7854 28.2285C13.6035 28.2196 13.9309 28.257 13.7539 28.2252C13.7019 28.2159 13.6509 28.2016 13.6001 28.1873C13.5667 28.1773 13.5335 28.1663 13.5008 28.1542C13.5833 28.1914 13.5899 28.1941 13.5206 28.1625C13.4271 28.1193 13.3399 28.0634 13.2561 28.0039C13.3954 28.1028 13.2618 28.0025 13.2371 27.9799C13.1993 27.9454 13.1647 27.9075 13.1303 27.8698C13.0139 27.7423 13.211 27.9876 13.111 27.8467C13.0813 27.8047 13.0554 27.7601 13.0297 27.7157C13.0038 27.6709 12.9821 27.6238 12.9605 27.5769C13.036 27.7409 12.9534 27.5303 12.9431 27.4939C12.9288 27.4427 12.9194 27.3904 12.91 27.3382C12.9417 27.5147 12.9153 27.34 12.9135 27.3047C12.9124 27.2819 12.9126 27.2588 12.9126 27.2359V23.8848C12.9126 23.7014 12.9135 23.5186 12.9249 23.3354C12.9286 23.2755 12.9344 23.2157 12.9401 23.1561C12.9423 23.1329 12.9686 22.9354 12.9451 23.1014C12.9616 22.9845 12.984 22.8686 13.0083 22.7531C13.0603 22.5064 13.134 22.2646 13.2207 22.028C13.2405 21.9739 13.2622 21.9205 13.2837 21.8671C13.2232 22.0169 13.2972 21.8405 13.3067 21.8199C13.3541 21.7158 13.4066 21.614 13.4607 21.5132C13.5774 21.296 13.7125 21.0891 13.8581 20.8903C13.9701 20.7374 13.7718 20.9972 13.8901 20.8493C13.9254 20.805 13.9622 20.762 13.999 20.7188C14.0726 20.6327 14.1502 20.5501 14.229 20.4688C14.3079 20.3875 14.3906 20.31 14.4745 20.2339C14.5166 20.1961 14.5594 20.1589 14.6027 20.1225C14.6244 20.104 14.8148 19.9543 14.686 20.0527C14.7913 19.9722 14.9008 19.8975 15.0119 19.8252C15.3235 19.6223 15.4523 19.2231 15.2571 18.89C15.0757 18.5803 14.6344 18.4412 14.3219 18.6447C12.6118 19.7582 11.5454 21.6584 11.5454 23.7079V26.731C11.5454 27.3032 11.5594 27.8284 11.8247 28.3604C12.2087 29.1303 13.0705 29.5993 13.9147 29.5993H26.074C27.067 29.5993 27.932 28.9724 28.2861 28.0559C28.4641 27.5954 28.4315 27.0966 28.4315 26.6127V23.699C28.4315 22.6405 28.144 21.5934 27.6147 20.678C27.1301 19.84 26.4274 19.1377 25.6139 18.6186C25.2994 18.418 24.8613 18.5519 24.6786 18.8638C24.4847 19.1947 24.6103 19.5991 24.9238 19.7991ZM34.3597 18.7797C34.3588 18.8878 34.3526 18.9957 34.3413 19.1032C34.3604 18.9217 34.3396 19.0979 34.3336 19.1312C34.3241 19.1829 34.3118 19.234 34.2994 19.285C34.275 19.3861 34.2421 19.4849 34.2066 19.5825C34.1465 19.7475 34.268 19.4496 34.1962 19.6092C34.1681 19.6715 34.1362 19.7319 34.1036 19.7918C34.0551 19.8814 33.9993 19.9669 33.9413 20.0507C33.8429 20.193 34.0336 19.9393 33.9252 20.0739C33.8935 20.1135 33.8595 20.1513 33.8256 20.1889C33.7579 20.2645 33.6842 20.3343 33.6087 20.402C33.571 20.4359 33.5314 20.4677 33.4919 20.4995C33.6338 20.3854 33.4535 20.5213 33.424 20.5409C33.339 20.5975 33.2496 20.647 33.159 20.694C33.1135 20.7176 33.0667 20.7387 33.0199 20.7598C33.1814 20.687 33.0217 20.7557 32.9914 20.7668C32.8935 20.8024 32.7928 20.8298 32.6916 20.8542C32.6404 20.8666 32.5885 20.8761 32.5367 20.8855C32.4591 20.8977 32.4671 20.8971 32.5606 20.8838C32.5251 20.8879 32.4896 20.8912 32.4539 20.894C32.3457 20.9033 32.2368 20.9032 32.1283 20.9002C32.0744 20.8986 32.0206 20.894 31.9669 20.8894C31.7857 20.8738 32.1159 20.9146 31.9376 20.8855C31.834 20.8686 31.7321 20.843 31.6311 20.8146C31.5812 20.8005 31.532 20.7836 31.483 20.7668C31.4505 20.7553 31.4182 20.7432 31.3862 20.7305C31.47 20.7669 31.4772 20.7697 31.4076 20.7387C31.3144 20.6966 31.2247 20.647 31.1366 20.5951C31.0928 20.5692 31.0503 20.5409 31.0079 20.5128C30.9822 20.4956 30.8437 20.392 30.9824 20.4995C30.8086 20.3648 30.6549 20.2055 30.5173 20.0344C30.6269 20.1706 30.5221 20.0349 30.5041 20.0089C30.4751 19.9671 30.4484 19.9236 30.4218 19.8803C30.3682 19.7931 30.3219 19.7017 30.2782 19.6093C30.2034 19.451 30.3309 19.7464 30.2678 19.5825C30.2491 19.5342 30.2332 19.4849 30.2173 19.4356C30.1797 19.3192 30.1532 19.1995 30.1313 19.0793C30.0988 18.9016 30.1465 19.2309 30.1274 19.05C30.1218 18.9964 30.1192 18.9425 30.1167 18.8887C30.1115 18.7801 30.1156 18.6714 30.1228 18.563C30.1251 18.5304 30.149 18.3503 30.1228 18.5325C30.1303 18.4802 30.1408 18.4284 30.1512 18.3767C30.1753 18.2574 30.2106 18.1406 30.2501 18.0256C30.2603 17.9958 30.3271 17.8336 30.2571 17.9972C30.2773 17.95 30.3001 17.904 30.3228 17.858C30.3681 17.7666 30.4209 17.6789 30.4759 17.593C30.5033 17.5502 30.533 17.5089 30.5628 17.4676C30.4611 17.6089 30.561 17.4715 30.5817 17.4467C30.6575 17.3558 30.7413 17.272 30.8279 17.1914C30.8651 17.1569 30.904 17.1243 30.943 17.0919C31.0016 17.0449 30.9956 17.0494 30.9249 17.1054C30.9523 17.0854 30.9799 17.0659 31.008 17.0468C31.1059 16.9791 31.2097 16.9203 31.3154 16.8655C31.3609 16.842 31.4077 16.8209 31.4545 16.7998C31.2863 16.8755 31.4978 16.7877 31.5319 16.776C31.664 16.7306 31.8004 16.6991 31.9376 16.674C32.1153 16.6416 31.786 16.6892 31.9669 16.6702C32.0386 16.6627 32.1106 16.6599 32.1826 16.6579C32.3088 16.6543 32.4352 16.6626 32.5606 16.6758C32.3792 16.6567 32.5554 16.6774 32.5887 16.6835C32.6576 16.6961 32.7254 16.7132 32.7931 16.7309C32.8601 16.7484 32.9259 16.7703 32.9914 16.7928C33.0239 16.8043 33.0561 16.8163 33.0881 16.829C33.0043 16.7926 32.9972 16.7899 33.0667 16.8209C33.1755 16.8699 33.2796 16.9288 33.3812 16.9912C33.4245 17.0178 33.4664 17.0468 33.5082 17.0758C33.5688 17.1203 33.5634 17.1151 33.4919 17.0601C33.5185 17.0811 33.5446 17.1025 33.5704 17.1244C33.6613 17.2002 33.7451 17.2841 33.8256 17.3706C33.8717 17.4202 33.9146 17.4725 33.957 17.5252C33.8429 17.3833 33.9788 17.5636 33.9985 17.593C34.0645 17.6923 34.1214 17.7973 34.1743 17.904C34.1885 17.9327 34.2549 18.0931 34.1881 17.9289C34.2141 17.9929 34.2359 18.0584 34.2571 18.124C34.2946 18.2404 34.3212 18.3601 34.3431 18.4803C34.3553 18.558 34.3547 18.55 34.3413 18.4564C34.3454 18.4919 34.3488 18.5275 34.3515 18.5631C34.3577 18.6351 34.3591 18.7075 34.3597 18.7797C34.3633 19.1523 34.668 19.4633 35.0433 19.4633C35.4133 19.4633 35.7305 19.1524 35.7269 18.7797C35.7174 17.784 35.2937 16.8125 34.5371 16.1575C33.7195 15.4497 32.6856 15.1949 31.6265 15.3471C30.6524 15.487 29.7898 16.1303 29.268 16.9458C28.7268 17.7914 28.6085 18.8985 28.9149 19.8484C29.1703 20.64 29.7057 21.3025 30.4033 21.7489C31.1341 22.2166 32.0035 22.3337 32.8479 22.2123C34.5064 21.974 35.7114 20.411 35.7269 18.7797C35.7305 18.4071 35.4133 18.0961 35.0433 18.0961C34.668 18.0961 34.3633 18.4072 34.3597 18.7797Z" fill="white"/>
<path d="M35.331 22.1249C35.3785 22.1554 35.4254 22.1866 35.4718 22.2186C35.491 22.2318 35.6394 22.3462 35.5133 22.2467C35.6015 22.3163 35.6845 22.3922 35.7655 22.47C35.8465 22.5478 35.9217 22.6314 35.9948 22.7166C36.0101 22.7345 36.1234 22.883 36.0272 22.7547C36.0722 22.8148 36.1138 22.8773 36.1549 22.9402C36.2168 23.0348 36.2716 23.1339 36.3238 23.2341C36.3501 23.2844 36.3738 23.336 36.3975 23.3876C36.3297 23.2401 36.4066 23.4125 36.4153 23.4353C36.4564 23.5428 36.4893 23.6532 36.5193 23.7642C36.5344 23.8203 36.5467 23.8771 36.559 23.9338C36.5656 23.9639 36.604 24.2116 36.582 24.0414C36.6461 24.5371 36.607 25.0588 36.607 25.5569V26.7716C36.607 26.8076 36.6053 26.8434 36.6018 26.8792C36.6154 26.7852 36.6145 26.7765 36.5993 26.8531C36.5917 26.887 36.5292 27.0448 36.5995 26.8839C36.5791 26.9306 36.5523 26.9741 36.5256 27.0173C36.4369 27.1608 36.6204 26.9131 36.5071 27.0373C36.484 27.0626 36.355 27.1671 36.4932 27.0629C36.4526 27.0934 36.4081 27.1182 36.3638 27.1428C36.2151 27.2252 36.5001 27.098 36.3373 27.1514C36.3026 27.1628 36.1338 27.1898 36.3133 27.1677C36.2807 27.1717 36.2371 27.1729 36.2043 27.1729H30.1242C29.7516 27.1729 29.4406 27.4839 29.4406 27.8565C29.4406 28.2292 29.7516 28.5401 30.1242 28.5401H35.8578C36.3396 28.5401 36.8168 28.5199 37.2236 28.2129C37.6842 27.8654 37.9743 27.3553 37.9743 26.7682V24.5738C37.9743 23.7137 37.7588 22.8738 37.2731 22.1564C36.9421 21.6675 36.5175 21.2631 36.0212 20.9445C35.7073 20.743 35.2682 20.8786 35.0859 21.1897C34.8915 21.5213 35.0181 21.924 35.331 22.1249ZM9.86184 18.7797C9.86085 18.8878 9.8547 18.9957 9.8434 19.1032C9.8625 18.9217 9.84176 19.0979 9.83567 19.1312C9.82625 19.1829 9.81387 19.234 9.80157 19.285C9.77715 19.3861 9.74426 19.4849 9.70872 19.5825C9.6486 19.7475 9.77016 19.4496 9.69829 19.6092C9.67024 19.6715 9.63825 19.7319 9.60575 19.7918C9.55719 19.8814 9.50141 19.9669 9.44344 20.0507C9.34497 20.193 9.53571 19.9393 9.42735 20.0739C9.39555 20.1135 9.36165 20.1513 9.32778 20.1889C9.26004 20.2645 9.18629 20.3343 9.11086 20.402C9.07309 20.4359 9.03356 20.4677 8.99403 20.4995C9.1359 20.3854 8.95559 20.5213 8.92614 20.5409C8.84114 20.5975 8.75168 20.647 8.6611 20.694C8.61555 20.7176 8.56875 20.7387 8.522 20.7598C8.68348 20.687 8.52383 20.7557 8.49352 20.7668C8.39563 20.8024 8.29493 20.8298 8.19372 20.8542C8.1425 20.8666 8.09067 20.8761 8.03887 20.8855C7.96122 20.8977 7.96918 20.8971 8.06278 20.8838C8.02727 20.8879 7.99168 20.8912 7.95606 20.894C7.84778 20.9033 7.73891 20.9032 7.63043 20.9002C7.57653 20.8986 7.52278 20.894 7.46907 20.8894C7.28782 20.8738 7.61801 20.9146 7.43977 20.8855C7.33618 20.8686 7.23422 20.843 7.13329 20.8146C7.08332 20.8005 7.03418 20.7836 6.98512 20.7668C6.95264 20.7553 6.92039 20.7432 6.88836 20.7305C6.97219 20.7669 6.97938 20.7697 6.90981 20.7387C6.81649 20.6966 6.72684 20.647 6.63879 20.5951C6.59493 20.5692 6.5525 20.5409 6.51016 20.5128C6.48438 20.4956 6.34586 20.392 6.48461 20.4995C6.31079 20.3648 6.15715 20.2055 6.0195 20.0344C6.12911 20.1706 6.0243 20.0349 6.00629 20.0089C5.97731 19.9671 5.95063 19.9236 5.92399 19.8803C5.87039 19.7931 5.82407 19.7017 5.7804 19.6093C5.70559 19.451 5.83313 19.7464 5.76997 19.5825C5.75133 19.5342 5.73543 19.4849 5.71954 19.4356C5.682 19.3192 5.65547 19.1995 5.63352 19.0793C5.60106 18.9016 5.64872 19.2309 5.62965 19.05C5.62403 18.9964 5.62145 18.9425 5.61891 18.8887C5.61372 18.7801 5.61786 18.6714 5.62508 18.563C5.62727 18.5304 5.65118 18.3503 5.625 18.5325C5.6325 18.4802 5.64297 18.4284 5.65348 18.3767C5.67758 18.2574 5.71286 18.1406 5.75231 18.0256C5.76254 17.9958 5.82938 17.8336 5.7593 17.9972C5.7795 17.95 5.80231 17.904 5.82504 17.858C5.87039 17.7666 5.92313 17.6789 5.97809 17.593C6.00551 17.5502 6.03524 17.5089 6.06493 17.4676C5.96332 17.6089 6.06317 17.4715 6.08387 17.4467C6.15969 17.3558 6.24356 17.272 6.33012 17.1914C6.36727 17.1569 6.40622 17.1243 6.44516 17.0919C6.50383 17.0449 6.49782 17.0494 6.42715 17.1054C6.45448 17.0854 6.48216 17.0659 6.5102 17.0468C6.60813 16.9791 6.71196 16.9203 6.81758 16.8655C6.86313 16.842 6.90993 16.8209 6.95668 16.7998C6.78848 16.8755 7 16.7877 7.03411 16.776C7.16618 16.7306 7.30258 16.6991 7.43981 16.674C7.61747 16.6416 7.28821 16.6892 7.46911 16.6702C7.54075 16.6627 7.61282 16.6599 7.68477 16.6579C7.81102 16.6543 7.93731 16.6626 8.06282 16.6758C7.88137 16.6567 8.05758 16.6774 8.09086 16.6835C8.15969 16.6961 8.22758 16.7132 8.29524 16.7309C8.36227 16.7484 8.42809 16.7703 8.4936 16.7928C8.52608 16.8042 8.55833 16.8163 8.59036 16.829C8.50653 16.7926 8.49934 16.7899 8.56891 16.8209C8.67774 16.8699 8.7818 16.9288 8.88332 16.9912C8.92668 17.0178 8.96856 17.0468 9.0104 17.0758C9.07102 17.1203 9.06559 17.1151 8.99411 17.0601C9.02065 17.081 9.04681 17.1025 9.07258 17.1244C9.16344 17.2002 9.24731 17.2841 9.32786 17.3706C9.37395 17.4202 9.41684 17.4725 9.45926 17.5252C9.34512 17.3833 9.4811 17.5636 9.50071 17.593C9.56676 17.6923 9.62364 17.7973 9.67649 17.904C9.69071 17.9327 9.75704 18.0931 9.69028 17.9289C9.71629 17.9929 9.73809 18.0584 9.75926 18.124C9.7968 18.2404 9.82332 18.3601 9.84528 18.4803C9.85747 18.558 9.85684 18.55 9.84352 18.4564C9.84758 18.4919 9.85098 18.5275 9.85372 18.5631C9.85977 18.6351 9.86114 18.7075 9.86184 18.7797C9.8654 19.1523 10.1701 19.4633 10.5454 19.4633C10.9154 19.4633 11.2326 19.1524 11.229 18.7797C11.2195 17.784 10.7958 16.8125 10.0393 16.1575C9.22161 15.4497 8.18774 15.1949 7.1286 15.3471C6.15454 15.487 5.29196 16.1303 4.77012 16.9458C4.22899 17.7914 4.11071 18.8985 4.41711 19.8484C4.6725 20.64 5.20786 21.3025 5.9054 21.7489C6.63625 22.2166 7.50563 22.3337 8.35004 22.2123C10.0085 21.974 11.2135 20.411 11.229 18.7797C11.2326 18.4071 10.9154 18.0961 10.5455 18.0961C10.1701 18.0961 9.8654 18.4072 9.86184 18.7797ZM9.85247 27.1728H3.79719C3.74012 27.1728 3.57274 27.1475 3.74039 27.1765C3.68911 27.1676 3.6395 27.1514 3.5902 27.1352C3.74887 27.1872 3.60477 27.1382 3.56832 27.118C3.53629 27.1002 3.4111 26.9979 3.54247 27.1069C3.51211 27.0817 3.37164 26.916 3.47961 27.059C3.44899 27.0184 3.42426 26.9739 3.39969 26.9296C3.31723 26.7809 3.44442 27.0659 3.39106 26.9031C3.37969 26.8684 3.3527 26.6996 3.37481 26.8791C3.37106 26.8486 3.36954 26.8012 3.36954 26.7707V24.4589C3.36954 24.3381 3.37676 24.2179 3.38821 24.0977C3.407 23.9003 3.3643 24.2386 3.39641 24.0443C3.40598 23.9864 3.41852 23.9289 3.43106 23.8715C3.4559 23.7579 3.48938 23.6463 3.52559 23.5358C3.54356 23.481 3.5643 23.4272 3.585 23.3734C3.52637 23.5257 3.61918 23.3018 3.63227 23.2748C3.68192 23.1722 3.73918 23.0735 3.79872 22.9764C3.8284 22.928 3.86043 22.8811 3.89247 22.8342C3.9052 22.8155 4.01942 22.6652 3.92094 22.7909C4.07227 22.5979 4.24825 22.4252 4.43645 22.2685C4.58133 22.1478 4.32532 22.3487 4.4779 22.2376C4.52375 22.2043 4.57125 22.1731 4.61868 22.142C4.92969 21.9382 5.0595 21.5406 4.86391 21.2068C4.68289 20.8978 4.24063 20.7571 3.92864 20.9616C3.02571 21.5532 2.36227 22.4521 2.11266 23.5081C1.97457 24.0921 2.00227 24.6932 2.00227 25.288V26.7638C2.00227 27.7445 2.81649 28.54 3.79165 28.54H9.85235C10.225 28.54 10.5359 28.2291 10.5359 27.8564C10.5359 27.4838 10.2251 27.1728 9.85247 27.1728Z" fill="white"/>
</g>
</g>
</g>
<defs>
<linearGradient id="paint0_linear_1151_795" x1="20" y1="10" x2="20" y2="28" gradientUnits="userSpaceOnUse">
<stop offset="0.629166" stop-color="#070519"/>
<stop offset="1" stop-color="#3C3A4A"/>
</linearGradient>
</defs>
</svg>
