<svg width="30" height="30" viewBox="0 0 30 30" fill="none" xmlns="http://www.w3.org/2000/svg">
<g id="puzzle (1)" clip-path="url(#clip0_1151_1065)">
<path id="Vector" d="M22.4412 15.1174V15.9867L23.1926 15.5495C24.1679 14.9822 25.2493 14.6176 26.0294 14.6176C28.0504 14.6176 29.5 16.212 29.5 18.0882C29.5 19.9644 28.0504 21.5588 26.0294 21.5588C25.2493 21.5588 24.1679 21.1943 23.1926 20.6269L22.4412 20.1898V21.0591V29.1176C22.4412 29.2191 22.4009 29.3163 22.3292 29.388C22.2575 29.4597 22.1602 29.5 22.0588 29.5H15.2744C14.9569 29.5 14.7776 29.1355 14.9715 28.8839C15.5793 28.0961 15.9412 27.0089 15.9412 26.0294C15.9412 24.1305 14.3816 22.4412 12.3529 22.4412C10.3243 22.4412 8.76471 24.1305 8.76471 26.0294C8.76471 27.0087 9.12653 28.0959 9.73434 28.8834C9.92818 29.1348 9.74877 29.4996 9.43147 29.4996H0.888529C0.787156 29.4996 0.689933 29.4593 0.618233 29.3876C0.546555 29.316 0.506252 29.2188 0.506176 29.1175C0.506176 29.1175 0.506176 29.1174 0.506176 29.1174L0.503529 20.5716C0.503529 20.5716 0.503529 20.5715 0.503529 20.5715C0.503648 20.2538 0.868078 20.0749 1.11918 20.2682C1.90689 20.8744 2.99303 21.2353 3.97059 21.2353C5.86952 21.2353 7.55882 19.6757 7.55882 17.6471C7.55882 15.6184 5.86952 14.0588 3.97059 14.0588C2.99201 14.0588 1.90588 14.4203 1.11782 15.0269L1.11752 15.0271C0.86661 15.2205 0.502206 15.0416 0.502206 14.7243L0.502206 14.7241L0.5 7.94118C0.5 7.94116 0.5 7.94114 0.5 7.94112C0.5 7.94108 0.5 7.94105 0.5 7.94101C0.500043 7.83967 0.540322 7.74248 0.611988 7.67081C0.683694 7.59911 0.780947 7.55882 0.882353 7.55882H8.94088H9.8102L9.37307 6.8074C8.8057 5.8321 8.44118 4.75066 8.44118 3.97059C8.44118 1.94959 10.0356 0.5 11.9118 0.5C13.788 0.5 15.3824 1.94959 15.3824 3.97059C15.3824 4.75066 15.0178 5.8321 14.4505 6.8074L14.0133 7.55882H14.8826H22.0588C22.1602 7.55882 22.2575 7.59911 22.3292 7.67081C22.4009 7.74252 22.4412 7.83977 22.4412 7.94118V15.1174Z" fill="url(#paint0_linear_1151_1065)" stroke="white"/>
</g>
<defs>
<linearGradient id="paint0_linear_1151_1065" x1="15" y1="0" x2="15" y2="30" gradientUnits="userSpaceOnUse">
<stop/>
<stop offset="1" stop-color="#3C3A4A"/>
</linearGradient>
<clipPath id="clip0_1151_1065">
<rect width="30" height="30" fill="white"/>
</clipPath>
</defs>
</svg>
