<svg width="40" height="40" viewBox="0 0 40 40" fill="none" xmlns="http://www.w3.org/2000/svg">
<path d="M9.04344 29.9346L11.4254 30.8985L12.8546 30.4166L13.8074 30.8985L15.2366 31.3805H16.1894L17.1422 30.8985L18.0949 30.4166L19.0477 31.3805L20.9533 32.3444H22.3825L23.8117 31.8624L25.2409 30.8985L26.1937 31.3805H27.6228H29.052L30.4812 29.9346L31.434 28.4888V26.561L30.9576 25.5972L31.9104 25.1152L32.3868 23.1874V21.7416L31.434 19.8138L29.5284 18.8499L29.052 17.8861L28.0992 15.9583L26.6701 14.5125L23.8117 14.0305L21.9061 15.4763V16.9222H17.6186V15.4763L16.6658 14.5125L16.1894 14.9944L15.713 15.4763L13.8074 14.9944L11.9018 15.9583L10.949 17.4041L10.4726 18.8499L9.51984 19.3319L8.56705 20.2958L7.61426 21.7416V23.6694L8.09065 25.1152V28.0069L9.04344 29.9346Z" fill="url(#paint0_linear_1151_524)"/>
<path d="M31.963 27.0297C31.9578 26.9733 31.9479 26.9184 31.9406 26.8626C31.9297 26.7809 31.9192 26.6997 31.9036 26.6185C31.8895 26.5442 31.8718 26.4714 31.8541 26.3982C31.8406 26.3412 31.827 26.2848 31.8109 26.2284C31.7858 26.1399 31.7572 26.0534 31.7275 25.9675C31.7202 25.9464 31.715 25.9248 31.7072 25.9037C32.5497 25.064 33.0265 23.9217 33.0265 22.713C33.0265 20.7094 31.704 18.9578 29.8308 18.4101C29.4213 15.7007 27.1266 13.617 24.4082 13.4994C24.588 12.9944 24.6896 12.4578 24.6896 11.907C24.6896 9.29085 22.5861 7.16284 20.0001 7.16284C17.4141 7.16284 15.3105 9.29085 15.3105 11.907C15.3105 12.7878 15.5633 13.6333 16.0046 14.365C15.9019 14.4746 15.8045 14.589 15.7138 14.7081C15.3251 14.5979 14.9286 14.5426 14.529 14.5426C12.2936 14.5426 10.4381 16.2146 10.1453 18.4164C8.28618 18.9726 6.97363 20.72 6.97363 22.713C6.97363 23.646 7.26386 24.5574 7.79638 25.3133C7.59578 25.8315 7.49469 26.3739 7.49469 26.93C7.49469 29.4007 9.48148 31.4106 11.9237 31.4106C12.1212 31.4106 12.3145 31.3927 12.5052 31.3674C12.5411 31.3626 12.5771 31.3563 12.613 31.3505C12.8058 31.3199 12.9955 31.2793 13.1799 31.224C13.8964 31.6921 14.7171 31.9377 15.5711 31.9377C16.5262 31.9377 17.4359 31.6336 18.1909 31.0701C19.0121 32.2698 20.3528 32.992 21.8238 32.992C23.19 32.992 24.4483 32.3689 25.2851 31.3015C25.9703 31.7195 26.7451 31.9377 27.5554 31.9377C29.9976 31.9377 31.9844 29.9278 31.9844 27.4572C31.9844 27.3138 31.9766 27.1715 31.963 27.0297ZM20.0001 8.21709C22.0108 8.21709 23.6475 9.87279 23.6475 11.907C23.6475 13.2163 22.9482 14.4398 21.8232 15.0992L21.5632 15.2516V16.6511H20.5211V13.3914C21.1261 13.1731 21.5632 12.5933 21.5632 11.907C21.5632 11.0351 20.8619 10.3256 20.0001 10.3256C19.1382 10.3256 18.4369 11.0351 18.4369 11.907C18.4369 12.5933 18.8741 13.1731 19.479 13.3914V16.6511H18.4369V15.2516L18.1769 15.0992C17.0519 14.4398 16.3527 13.2163 16.3527 11.907C16.3527 9.87279 17.9893 8.21709 20.0001 8.21709ZM22.0843 19.5503C22.0843 19.6952 21.967 19.8138 21.8238 19.8138H18.1764C18.0331 19.8138 17.9158 19.6952 17.9158 19.5503C17.9158 19.4053 18.0331 19.2867 18.1764 19.2867H21.8238C21.967 19.2867 22.0843 19.4053 22.0843 19.5503ZM18.1764 18.2325H17.6553C17.512 18.2325 17.3948 18.1139 17.3948 17.9689C17.3948 17.8239 17.512 17.7053 17.6553 17.7053H22.3448C22.4881 17.7053 22.6053 17.8239 22.6053 17.9689C22.6053 18.1139 22.4881 18.2325 22.3448 18.2325H21.8238H18.1764ZM19.479 11.907C19.479 11.616 19.7124 11.3798 20.0001 11.3798C20.2877 11.3798 20.5211 11.616 20.5211 11.907C20.5211 12.1979 20.2877 12.4341 20.0001 12.4341C19.7124 12.4341 19.479 12.1979 19.479 11.907ZM27.5554 30.8835C26.7967 30.8835 26.0771 30.632 25.4748 30.1566L25.2612 29.9879C24.564 29.3427 24.1576 28.4234 24.1576 27.4572H23.1155C23.1155 28.6706 23.6105 29.8234 24.4572 30.6605C23.8168 31.467 22.8612 31.9377 21.8238 31.9377C20.53 31.9377 19.3675 31.2061 18.7912 30.028L18.4702 29.3727L17.957 29.8888C17.3182 30.5298 16.4709 30.8835 15.5711 30.8835C15.1589 30.8835 14.7598 30.8002 14.381 30.6547C15.569 29.8503 16.3527 28.4814 16.3527 26.93C16.3527 26.8178 16.3381 26.7086 16.3303 26.5979C17.1593 26.4525 17.9341 26.0729 18.563 25.4894L17.8585 24.7119C17.3729 25.1621 16.7747 25.453 16.1338 25.5616C15.7852 24.461 15.0307 23.5201 13.9845 22.9624L13.4988 23.8954C14.6165 24.4916 15.3105 25.6539 15.3105 26.93C15.3105 28.4092 14.3773 29.6685 13.0768 30.1476C12.8934 30.2146 12.7073 30.2652 12.5203 30.3C12.5078 30.3021 12.4953 30.3036 12.4828 30.3057C12.2968 30.3379 12.1102 30.3564 11.9237 30.3564C10.0562 30.3564 8.5368 28.8193 8.5368 26.93C8.5368 26.4229 8.64779 25.9301 8.86663 25.4636L9.0094 25.16L8.79681 24.9011C8.29295 24.287 8.01575 23.5106 8.01575 22.713C8.01575 21.0863 9.15842 19.6736 10.7325 19.3542L11.1322 19.2735L11.1509 18.8624C11.2354 17.0312 12.7188 15.5968 14.529 15.5968C14.9359 15.5968 15.3413 15.6733 15.7331 15.824L16.1312 15.9769L16.3589 15.6137C16.4475 15.4724 16.546 15.3386 16.6533 15.212C16.8784 15.4461 17.1233 15.6627 17.3958 15.8472V16.678C16.8018 16.8003 16.3537 17.3327 16.3537 17.9689C16.3537 18.4381 16.5986 18.8471 16.9639 19.0811C16.9076 19.2272 16.8737 19.3842 16.8737 19.5503C16.8737 20.2772 17.4578 20.8681 18.1764 20.8681H21.8238C22.5423 20.8681 23.1264 20.2772 23.1264 19.5503C23.1264 19.3842 23.0925 19.2272 23.0373 19.0811C23.4026 18.8471 23.6475 18.4381 23.6475 17.9689C23.6475 17.3321 23.1993 16.8003 22.6053 16.678V15.8472C23.1149 15.502 23.5427 15.0597 23.8788 14.5574C23.9747 14.551 24.0706 14.5426 24.1685 14.5426C26.582 14.5426 28.6329 16.4476 28.8377 18.8803L28.8705 19.2762L29.2556 19.3531C30.837 19.6678 31.9844 21.0805 31.9844 22.713C31.9844 23.5259 31.6988 24.296 31.1929 24.9075C30.392 23.7425 29.0612 22.9766 27.5554 22.9766V24.0308C28.9054 24.0308 30.0705 24.8363 30.614 25.9954C30.6651 26.1046 30.7099 26.2158 30.7495 26.3275C30.7526 26.3365 30.7562 26.3455 30.7594 26.3544C30.7943 26.4572 30.8229 26.5616 30.8479 26.6665C30.8521 26.6849 30.8578 26.7034 30.862 26.7224C30.8834 26.8199 30.8985 26.9184 30.9115 27.017C30.9146 27.0413 30.9198 27.065 30.9225 27.0898C30.935 27.2115 30.9423 27.3338 30.9423 27.4572C30.9423 29.3464 29.4228 30.8835 27.5554 30.8835Z" fill="white"/>
<path d="M20.5211 4H19.479V6.1085H20.5211V4Z" fill="white"/>
<path d="M16.5431 4.79587L15.6406 5.323L16.6827 7.14901L17.5852 6.62189L16.5431 4.79587Z" fill="white"/>
<path d="M13.4913 7.49642L12.9702 8.40942L14.7752 9.46367L15.2963 8.55067L13.4913 7.49642Z" fill="white"/>
<path d="M14.2688 11.3796H12.1846V12.4339H14.2688V11.3796Z" fill="white"/>
<path d="M27.8162 11.3796H25.7319V12.4339H27.8162V11.3796Z" fill="white"/>
<path d="M26.5088 7.49755L24.7036 8.55151L25.2245 9.4646L27.0297 8.41064L26.5088 7.49755Z" fill="white"/>
<path d="M23.4564 4.79544L22.4146 6.62158L23.3171 7.1486L24.359 5.32245L23.4564 4.79544Z" fill="white"/>
<path d="M5.4105 32.4647H6.75795L4 35.2547L4.73677 36.0001L7.49473 33.21V34.5732H8.53684V31.4104H5.4105V32.4647Z" fill="white"/>
<path d="M34.5897 32.4647V31.4104H31.4634V34.5732H32.5055V33.21L35.2634 36.0001L36.0002 35.2547L33.2423 32.4647H34.5897Z" fill="white"/>
<path d="M5.4105 16.6512V17.7054H8.53684V14.5427H7.49473V15.9058L4.73677 13.1157L4 13.8611L6.75795 16.6512H5.4105Z" fill="white"/>
<path d="M34.5897 16.6512H33.2423L36.0002 13.8611L35.2634 13.1157L32.5055 15.9058V14.5427H31.4634V17.7054H34.5897V16.6512Z" fill="white"/>
<defs>
<linearGradient id="paint0_linear_1151_524" x1="20.0005" y1="14.0305" x2="20.0005" y2="32.3444" gradientUnits="userSpaceOnUse">
<stop offset="0.228125" stop-color="#070519"/>
<stop offset="1" stop-color="#3C3A4A"/>
</linearGradient>
</defs>
</svg>
