<svg width="32" height="31" viewBox="0 0 32 31" fill="none" xmlns="http://www.w3.org/2000/svg">
<g id="Group 627632">
<path id="Rectangle 3463939" d="M1.6875 1.8125H23.1603V6.8125V9.8125L27.7354 10.9663L29.6875 13.8125L30.1875 17.3125L29.1875 20.3125L26.7594 22.3125V29.274L23.6875 27.3125L20.1875 29.8125H16.511H1.6875V1.8125Z" fill="url(#paint0_linear_1151_1259)"/>
<path id="Vector" d="M5.0625 0C2.65767 0 0.6875 1.97017 0.6875 4.375V26.25C0.6875 28.6548 2.65767 30.625 5.0625 30.625H16C16.2901 30.625 16.5683 30.5098 16.7734 30.3046C16.9785 30.0995 17.0938 29.8213 17.0938 29.5312C17.0938 29.2412 16.9785 28.963 16.7734 28.7579C16.5683 28.5527 16.2901 28.4375 16 28.4375H5.0625C3.83171 28.4375 2.875 27.4808 2.875 26.25V4.375C2.875 3.14421 3.83171 2.1875 5.0625 2.1875H20.375C21.6058 2.1875 22.5625 3.14421 22.5625 4.375V6.5625C22.5625 6.85258 22.6777 7.13078 22.8829 7.3359C23.088 7.54102 23.3662 7.65625 23.6562 7.65625C23.9463 7.65625 24.2245 7.54102 24.4296 7.3359C24.6348 7.13078 24.75 6.85258 24.75 6.5625V4.375C24.75 1.97017 22.7798 0 20.375 0H5.0625Z" fill="white"/>
<path id="Vector_2" d="M23.6562 8.75C19.4408 8.75 16 12.1908 16 16.4063C16 19.0016 17.3078 21.2988 19.2941 22.6846V29.5313C19.2942 29.7294 19.3482 29.9237 19.4502 30.0935C19.5522 30.2634 19.6984 30.4023 19.8732 30.4955C20.048 30.5887 20.2449 30.6327 20.4427 30.6228C20.6406 30.6129 20.832 30.5494 20.9966 30.4391L23.6562 28.6597L26.3159 30.4391C26.4805 30.5494 26.6719 30.6129 26.8698 30.6228C27.0676 30.6327 27.2645 30.5887 27.4393 30.4955C27.6141 30.4023 27.7603 30.2634 27.8623 30.0935C27.9643 29.9237 28.0183 29.7294 28.0184 29.5313V22.6846C30.0047 21.2988 31.3125 19.0016 31.3125 16.4063C31.3125 12.1908 27.8717 8.75 23.6562 8.75ZM23.6562 10.9375C26.6895 10.9375 29.125 13.373 29.125 16.4063C29.125 19.4395 26.6895 21.875 23.6562 21.875C20.623 21.875 18.1875 19.4395 18.1875 16.4063C18.1875 13.373 20.623 10.9375 23.6562 10.9375ZM21.4816 23.7421C22.1716 23.9475 22.9012 24.0625 23.6562 24.0625C24.4113 24.0625 25.1409 23.9475 25.8309 23.7421V27.4847L24.2651 26.4359C24.085 26.3152 23.8731 26.2508 23.6562 26.2508C23.4394 26.2508 23.2275 26.3152 23.0474 26.4359L21.4816 27.4847V23.7421Z" fill="white"/>
<path id="Vector_3" d="M7.25 5.46875C6.95992 5.46875 6.68172 5.58398 6.4766 5.7891C6.27148 5.99422 6.15625 6.27242 6.15625 6.5625C6.15625 6.85258 6.27148 7.13078 6.4766 7.3359C6.68172 7.54102 6.95992 7.65625 7.25 7.65625H10.5312C10.8213 7.65625 11.0995 7.54102 11.3046 7.3359C11.5098 7.13078 11.625 6.85258 11.625 6.5625C11.625 6.27242 11.5098 5.99422 11.3046 5.7891C11.0995 5.58398 10.8213 5.46875 10.5312 5.46875H7.25ZM7.25 9.84375C6.95992 9.84375 6.68172 9.95898 6.4766 10.1641C6.27148 10.3692 6.15625 10.6474 6.15625 10.9375C6.15625 11.2276 6.27148 11.5058 6.4766 11.7109C6.68172 11.916 6.95992 12.0312 7.25 12.0312H13.8125C14.1026 12.0312 14.3808 11.916 14.5859 11.7109C14.791 11.5058 14.9062 11.2276 14.9062 10.9375C14.9062 10.6474 14.791 10.3692 14.5859 10.1641C14.3808 9.95898 14.1026 9.84375 13.8125 9.84375H7.25ZM7.25 14.2188C6.95992 14.2188 6.68172 14.334 6.4766 14.5391C6.27148 14.7442 6.15625 15.0224 6.15625 15.3125C6.15625 15.6026 6.27148 15.8808 6.4766 16.0859C6.68172 16.291 6.95992 16.4062 7.25 16.4062H10.5312C10.8213 16.4062 11.0995 16.291 11.3046 16.0859C11.5098 15.8808 11.625 15.6026 11.625 15.3125C11.625 15.0224 11.5098 14.7442 11.3046 14.5391C11.0995 14.334 10.8213 14.2188 10.5312 14.2188H7.25Z" fill="white"/>
</g>
<defs>
<linearGradient id="paint0_linear_1151_1259" x1="12.4239" y1="1.8125" x2="12.4239" y2="29.8125" gradientUnits="userSpaceOnUse">
<stop stop-color="#0F0F0F"/>
<stop offset="1" stop-color="#3C3A4A"/>
</linearGradient>
</defs>
</svg>
